<?xml version="1.0" encoding="UTF-8" standalone="no"?>
<svg viewBox="0 0 174 44" version="1.1" xmlns="http://www.w3.org/2000/svg" xmlns:xlink="http://www.w3.org/1999/xlink">
    <!-- Generator: Sketch 39.1 (31720) - http://www.bohemiancoding.com/sketch -->
    <title>Kelisto Flat</title>
    <desc>Created with Sketch.</desc>
    <defs></defs>
    <g id="Black-For-SVG" stroke="none" stroke-width="1" fill="#800080" fill-rule="evenodd">
        <g id="Artboard-1" transform="translate(-66.000000, -62.000000)" fill="#800080">
            <path d="M216.778,101.871327 C216.308,101.998327 215.679,102.635327 215.553,103.113327 C215.269,104.160327 215.872,105.183327 216.928,105.468327 C217.7,105.677327 218.647,105.191327 218.999,104.412327 C219.443,103.439327 218.889,102.199327 217.867,101.896327 C217.398,101.755327 217.239,101.755327 216.778,101.871327 M234.75,93.3483266 C233.517,93.6243266 232.612,94.3283266 232.218,95.3013266 C231.95,95.9803266 231.942,97.2793266 232.211,97.8493266 C232.571,98.6373266 233.376,99.3163266 234.994,100.221327 C236.276,100.933327 236.762,101.429327 236.762,102.015327 C236.762,102.408327 236.62,102.677327 236.327,102.869327 C236.084,103.020327 235.95,103.037327 235.254,103.004327 C234.625,102.978327 234.274,102.902327 233.551,102.660327 C233.049,102.492327 232.572,102.357327 232.496,102.357327 C232.245,102.357327 232.077,102.634327 231.807,103.488327 C231.556,104.302327 231.548,104.310327 231.708,104.529327 C231.817,104.672327 232.092,104.814327 232.553,104.973327 C234.231,105.535327 235.949,105.660327 237.096,105.300327 C238.212,104.956327 238.874,104.394327 239.343,103.389327 C239.552,102.945327 239.57,102.818327 239.57,101.896327 C239.57,100.967327 239.552,100.857327 239.335,100.414327 C238.974,99.6763266 238.094,98.9143266 236.803,98.2093266 C236.216,97.8823266 235.538,97.4453266 235.303,97.2363266 C234.926,96.8923266 234.877,96.8083266 234.877,96.5073266 C234.877,95.4923266 235.848,95.1993266 237.45,95.7363266 C237.861,95.8693266 238.246,95.9863266 238.304,95.9863266 C238.506,95.9863266 238.757,95.6093266 238.984,94.9643266 C239.202,94.3443266 239.211,94.3023266 239.076,94.1003266 C238.656,93.4653266 236.15,93.0293266 234.75,93.3483266 M225.948,95.6703266 C226.459,95.9303266 226.853,96.6913266 226.927,97.5643266 L226.978,98.2551266 L225.243,98.2551266 C223.918,98.2551266 223.515,98.1433266 223.515,98.0593266 C223.515,98.0093266 223.575,97.6993266 223.641,97.3893266 C223.962,95.8533266 224.917,95.1503266 225.948,95.6703266 M224.322,93.3223266 C221.858,93.7923266 220.348,96.4063266 220.533,99.8853266 C220.742,103.967327 222.939,105.894327 226.904,105.468327 C228.413,105.301327 229.635,104.831327 229.635,104.420327 C229.635,104.193327 229.167,102.794327 229.032,102.627327 C228.907,102.475327 228.664,102.501327 227.917,102.752327 C227.346,102.936327 227.095,102.970327 226.241,102.970327 C225.478,102.977327 225.159,102.945327 224.924,102.836327 C224.178,102.501327 223.777,101.889327 223.609,100.841327 C223.558,100.548327 223.516,100.255327 223.516,100.195327 C223.516,100.119327 224.171,100.255127 226.493,100.255127 L229.476,100.255127 L229.695,99.8763266 C229.913,99.6583266 229.913,99.6503266 229.862,98.7193266 C229.753,96.6403266 229.2,95.1733266 228.176,94.2423266 C227.289,93.4233266 225.721,93.0543266 224.322,93.3223266 M203.962,82.2913266 C206.057,82.7263266 208.078,84.5553266 209.117,86.9513266 C211.103,91.5373266 209.368,97.2033266 205.37,99.2153266 C204.33,99.7343266 203.735,99.8783266 202.562,99.8783266 C201.439,99.8783266 200.827,99.7443266 199.838,99.2663266 C198.245,98.5033266 197.03,97.2213266 196.15,95.3773266 C194.029,90.9603266 195.505,85.2853266 199.351,83.0133266 C200.735,82.1913266 202.301,81.9483266 203.962,82.2913266 M201.639,76.2143266 C195.881,76.6333266 191.01,81.1933266 189.619,87.4453266 C188.806,91.1173266 189.258,94.8483266 190.918,98.2093266 C191.622,99.6423266 192.36,100.689327 193.458,101.830327 C195.595,104.059327 198.134,105.376327 201.027,105.753327 C202.159,105.904327 202.703,105.912327 203.8,105.787327 C210.095,105.107327 215.033,99.7183266 215.796,92.7013266 C216.424,87.0183266 213.851,81.2263266 209.391,78.2763266 C207.639,77.1193266 205.544,76.3653266 203.776,76.2483266 L202.77,76.1723266 C202.587,76.1643266 202.076,76.1803266 201.639,76.2143266 M137.406,76.1643266 C137.011,76.2983266 136.726,76.5493266 136.558,76.9183266 C136.442,77.1613266 136.424,78.6703266 136.424,90.8753266 C136.424,102.475327 136.442,104.580327 136.542,104.771327 C136.701,105.074327 137.087,105.426327 137.372,105.535327 C137.523,105.593327 138.487,105.627327 139.904,105.627327 C141.321,105.627327 142.284,105.593327 142.434,105.535327 C142.753,105.417327 143.131,105.057327 143.264,104.730327 C143.441,104.328327 143.441,77.4293266 143.264,77.0173266 C143.123,76.6753266 142.712,76.2813266 142.36,76.1453266 C141.941,75.9963266 137.825,76.0133266 137.406,76.1643266 M157.901,75.7873266 C153.86,76.2983266 151.195,78.4283266 150.29,81.8643266 C150.096,82.5853266 150.064,82.8863266 150.054,84.0023266 C150.047,85.5523266 150.156,86.0643266 150.758,87.3123266 C151.69,89.2323266 153.19,90.5153266 156.927,92.5943266 C159.166,93.8433266 160.147,94.4963266 160.8,95.1763266 C161.522,95.9303266 161.824,96.5843266 161.824,97.4063266 C161.824,98.2773266 161.698,98.6383266 161.195,99.1413266 C160.549,99.7873266 160.179,99.8873266 158.47,99.8793266 C156.534,99.8793266 155.42,99.6113266 151.983,98.3373266 C151.329,98.1023266 150.985,98.1603266 150.575,98.5973266 C150.305,98.8823266 150.198,99.1423266 149.677,100.760327 C149.35,101.766327 149.083,102.713327 149.083,102.855327 C149.083,103.258327 149.284,103.652327 149.611,103.904327 C150.012,104.214327 151.722,104.826327 153.265,105.219327 C159.099,106.711327 163.735,106.041327 166.467,103.316327 C168.17,101.615327 169.067,99.1423266 168.924,96.5353266 C168.799,94.3313266 168.061,92.7383266 166.359,91.0373266 C165.269,89.9563266 164.046,89.1263266 161.497,87.7343266 C159.401,86.5943266 158.714,86.1503266 158.044,85.5373266 C157.381,84.9173266 157.13,84.3983266 157.13,83.6353266 C157.13,82.6293266 157.658,81.8163266 158.596,81.3883266 C158.973,81.2123266 159.133,81.1953266 160.19,81.1953266 C161.565,81.2043266 162.176,81.3293266 163.979,81.9913266 C165.47,82.5363266 165.898,82.5283266 166.401,81.9743266 C166.661,81.6893266 166.778,81.4293266 167.315,79.8703266 C167.767,78.5543266 167.793,78.4453266 167.7,78.1353266 C167.482,77.4143266 167.046,77.1293266 165.144,76.5013266 C163.543,75.9643266 162.403,75.7893266 160.274,75.7473266 C159.308,75.7283266 158.236,75.7453266 157.901,75.7873266 M103.71,81.4533266 C104.162,81.5783266 104.741,81.9643266 105.16,82.4333266 C105.939,83.2883266 106.508,85.1743266 106.694,87.4963266 L106.728,88.2551266 L98.069,88.2551266 L98.135,87.3283266 C98.312,85.7853266 98.638,84.6193266 99.192,83.5393266 C100.164,81.6553266 101.773,80.9083266 103.71,81.4533266 M100.818,75.7953266 C95.353,76.4993266 91.707,80.9423266 90.818,87.9823266 C90.651,89.2403266 90.683,92.6773266 90.86,94.0173266 C91.488,98.7283266 93.249,102.040327 96.157,103.975327 C98.53,105.552327 101.245,106.156327 105.134,105.963327 C108.009,105.820327 109.754,105.460327 111.908,104.562327 C112.83,104.177327 113.207,103.767327 113.207,103.138327 C113.207,102.810327 112.067,99.4823266 111.824,99.1233266 C111.632,98.8203266 111.313,98.6443266 110.961,98.6523266 C110.794,98.6523266 110.139,98.8283266 109.519,99.0293266 C107.407,99.7343266 105.546,99.9943266 103.71,99.8433266 C101.974,99.6993266 100.894,99.2653266 99.955,98.3343266 C98.924,97.3113266 98.345,95.7343266 98.135,93.3553266 L98.069,92.2551266 L105.302,92.2551266 C113.04,92.2551266 112.864,92.6423266 113.316,92.2323266 C113.702,91.8893266 113.794,91.5273266 113.794,90.3963266 C113.794,87.7733266 113.349,84.9653266 112.612,82.8613266 C110.961,78.1583266 107.364,75.6613266 102.309,75.7113266 C101.781,75.7203266 101.111,75.7533266 100.818,75.7953266 M178.638,67.2793266 C176.14,67.8833266 175.982,67.9493266 175.646,68.6373266 C175.445,69.0393266 175.445,69.0563266 175.42,72.5343266 L175.395,76.2551266 L173.843,76.2551266 C172.016,76.2551266 171.638,76.1133266 171.212,76.5413266 C170.767,76.9853266 170.692,77.3533266 170.725,78.9723266 C170.751,80.5653266 170.842,80.8503266 171.405,81.2193266 C171.74,81.4463266 171.749,81.4463266 173.576,81.4703266 L175.673,81.4953266 L175.673,90.6053266 C175.673,99.9773266 175.42,100.564327 175.747,101.770327 C176.14,103.246327 177.138,104.578327 178.295,105.183327 C179.904,106.029327 182.528,106.223327 185.487,105.711327 C187.566,105.359327 188.295,104.965327 188.371,104.143327 C188.421,103.666327 187.808,100.422327 187.599,100.018327 C187.525,99.8693266 187.348,99.6763266 187.198,99.5833266 C186.905,99.3983266 186.803,99.3983266 185.212,99.5833266 C183.97,99.7343266 183.451,99.6073266 182.965,99.0553266 C182.427,98.4433266 182.673,98.7273266 182.673,89.6833266 L182.673,81.2551266 L184.431,81.2551266 C186.276,81.2551266 186.444,81.4773266 186.779,81.3093266 C187.03,81.1833266 187.215,81.0173266 187.374,80.7483266 C187.599,80.3533266 187.673,80.3463266 187.673,78.7953266 L187.673,77.2363266 L187.348,76.8343266 C186.905,76.1223266 186.754,76.0883266 184.44,76.0543266 L182.454,76.0293266 L182.428,71.8633266 C182.404,67.8733266 182.396,67.6893266 182.236,67.4123266 C182.144,67.2533266 181.967,67.0523266 181.85,66.9593266 C181.438,66.6583266 181.036,66.7003266 178.638,67.2793266 M120.374,62.6183266 C119.971,62.8033266 119.795,62.9873266 119.619,63.4063266 C119.509,63.6753266 119.494,65.7203266 119.494,81.8813266 C119.494,101.580327 119.476,100.892327 119.947,102.258327 C120.064,102.593327 120.264,103.062327 120.39,103.306327 C120.709,103.892327 121.681,104.857327 122.301,105.183327 C124.22,106.197327 127.541,106.273327 130.474,105.376327 C131.087,105.191327 131.338,105.066327 131.548,104.848327 C132.008,104.378327 132.008,104.226327 131.691,102.098327 C131.524,101.041327 131.364,100.095327 131.322,99.9863266 C131.213,99.7103266 130.853,99.4413266 130.509,99.3743266 C130.359,99.3493266 129.881,99.3913266 129.453,99.4663266 C129.026,99.5413266 128.38,99.6153266 128.028,99.6253266 C127.282,99.6333266 127.022,99.4993266 126.745,98.9533266 C126.578,98.6273266 126.578,98.4183266 126.536,81.1083266 C126.494,64.0923266 126.486,63.5813266 126.335,63.2703266 C126.243,63.0863266 126.025,62.8433266 125.84,62.7253266 L125.506,62.4993266 L123.106,62.4753266 C120.918,62.4593266 120.674,62.4753266 120.374,62.6183266 M66.894,62.5933266 C66.526,62.7783266 66.257,63.0543266 66.132,63.3563266 C65.956,63.7583266 65.956,104.328327 66.132,104.730327 C66.265,105.058327 66.644,105.419327 66.962,105.535327 C67.113,105.594327 68.077,105.628327 69.502,105.628327 C72.007,105.628327 72.183,105.602327 72.603,105.150327 C72.72,105.025327 72.863,104.822327 72.922,104.706327 C72.989,104.555327 73.023,102.510327 73.055,97.6563266 L73.097,90.8163266 L76.786,97.6563266 C79.425,102.559327 80.575,104.605327 80.834,104.882327 C81.035,105.109327 81.371,105.351327 81.605,105.451327 C82.015,105.628327 82.117,105.636327 85.293,105.611327 L88.562,105.586327 L88.822,105.326327 C89.157,104.990327 89.241,104.453327 89.023,104.027327 C88.94,103.867327 86.801,100.381327 84.261,96.2813266 C81.721,92.1753266 79.652,88.7793266 79.652,88.7303266 C79.652,88.6793266 81.437,86.1893266 83.632,83.1973266 C85.821,80.2053266 87.656,77.6733266 87.707,77.5723266 C87.84,77.3213266 87.833,76.8353266 87.69,76.5583266 C87.447,76.0893266 87.387,76.0803266 84.044,76.0803266 C81.043,76.0803266 80.967,76.0803266 80.598,76.2643266 C80.389,76.3733266 80.063,76.6163266 79.878,76.8083266 C79.684,77.0103266 78.084,79.5253266 76.316,82.4003266 L73.096,87.6303266 L73.054,75.6113266 L73.012,63.5913266 L72.787,63.1973266 C72.628,62.9283266 72.444,62.7613266 72.192,62.6353266 C71.847,62.4683266 71.697,62.4593266 69.485,62.4593266 C67.531,62.4593266 67.104,62.4843266 66.894,62.5933266 M138.697,62.1743266 C137.364,62.5343266 136.241,63.6743266 135.797,65.1163266 C135.327,66.6253266 135.73,68.4103266 136.786,69.5503266 C137.574,70.3973266 138.614,70.8413266 139.821,70.8413266 C142.217,70.8413266 144.053,68.9643266 144.053,66.5163266 C144.053,64.3873266 142.797,62.6773266 140.861,62.1663266 C140.29,62.0073266 139.284,62.0153266 138.697,62.1743266" id="Page-1"></path>
        </g>
    </g>
</svg>